<svg xmlns="http://www.w3.org/2000/svg" viewBox="0 0 453.53 58.05"><title>68</title><g id="Layer_2" data-name="Layer 2"><g id="Layer_1-2" data-name="Layer 1"><path d="M186.16,50.36a25.22,25.22,0,0,0,3.9-3.48c.27-.37-.56-2.3-1-2.35-1.69-.18-4.1-.53-5,.39-1.45,1.49-2.95,4.2-2.52,5.91a8.08,8.08,0,0,0,4.81,4.79c4.39,1.34,9.09-1.38,11.16-5.51,1.83-3.66,1.35-8.88-2.4-11.43-3.9-2.66-8.62-5.22-13.18-5.62a317.77,317.77,0,0,0-39-1.44c-21.29.74-42.53,3-63.83,3.79-16.64.64-33.34.36-50-.1-7.66-.21-15.37-1.49-21.87-6.38C1.84,24.87-1,19.69.33,12.9S6.27,2.28,12.65.45A12.46,12.46,0,0,1,26.72,6.31a9.85,9.85,0,0,1-2,11.59c-3.32,3.23-7.95,4.1-11.62,2.15a7.7,7.7,0,0,1-4.2-8.82c.6-3.37,2.83-5.94,6.23-5.66,2,.17,4.36,2.09,5.61,3.89.61.86-.52,3.82-1.71,4.76-.92.72-3.15-.24-5.51-.55l6.1-2c-.89-1.56-1.82-4.44-2.66-4.41-2,.06-4.8,1-5.79,2.51s-.85,4.84.25,6.1a10.19,10.19,0,0,0,6.72,3.15c4.47.12,7.73-3.86,7.73-8.3a9.42,9.42,0,0,0-8.64-9.22C11.47,1.09,5.4,5.1,2.7,11.13c-2.14,4.79-1,11.44,3.79,14.78,4,2.8,8.87,5.63,13.55,6,16.31,1.31,32.74,2.57,49.07,2,32.07-1.09,64.09-3.66,96.15-5.08A58.28,58.28,0,0,1,192.73,34c6,2.81,9.16,9.33,7.5,14.84A12.77,12.77,0,0,1,186.76,58a8.2,8.2,0,0,1-7.48-7.34A7.25,7.25,0,0,1,184,42.58a7.92,7.92,0,0,1,4.08-.51c2.76.43,4.86,2,4.31,5.1C191.81,50.63,189.27,50.78,186.16,50.36ZM434.84,12.64c-.75-.73-.89-3.47-.24-4,1.31-1,3.33-1.32,5.1-1.57.61-.09,1.46.76,2,1.34a5.7,5.7,0,0,1,1.09,7.31,6.94,6.94,0,0,1-8.27,3.45,9.42,9.42,0,0,1-7.13-8.86c0-3.9,3.49-8,7.8-8.8,5.76-1,10.09,1.92,13.58,5.93,3.32,3.82,4.5,8.37,2.14,13.27C447,28.89,439.57,32.06,431.4,32.55c-16.34,1-32.77,1.89-49.11,1.28-24.38-.9-48.68-3.54-73.05-4.63-12.12-.55-24.37.26-36.47,1.36-4.95.45-10,2.69-14.42,5.23-5.48,3.17-6.87,10.35-4,15.54s9.54,8,14.71,6.13a8.31,8.31,0,0,0,5.08-10.24,7.92,7.92,0,0,0-9-5.1c-2.78.75-4.59,2.49-3.74,5.52s3.17,3.2,6,2.67a25.91,25.91,0,0,1-3.84-3.67c-.22-.32,1.12-2.48,1.61-2.43,2,.19,4.55.34,5.61,1.6a7.12,7.12,0,0,1,1.21,6c-.62,1.7-2.92,3.41-4.79,3.89-4.27,1.07-8.82-1.5-10.9-5.4A9,9,0,0,1,258,39.12a20.68,20.68,0,0,1,8.52-5c6-1.47,12.15-2.83,18.22-2.75,18.09.23,36.16,1.12,54.23,1.88,22.7.95,45.38,2.58,68.08,2.83a140.64,140.64,0,0,0,32.4-3.8c14.2-3.24,18.58-18.11,8.88-27.81a13.62,13.62,0,0,0-15.1-3.36A10.48,10.48,0,0,0,426,10.57c-.42,4.36,1.95,7.2,5.5,9.11a9.18,9.18,0,0,0,10.93-1.23A7.24,7.24,0,0,0,443.8,9.2a7.75,7.75,0,0,0-5.54-3.34c-1.75-.06-4.15,1.66-5.15,3.28-.65,1.07.11,3.93,1.21,5,1.78,1.69,3.81.83,5-1.3C437.56,12.8,435.59,13.36,434.84,12.64ZM226.44,54.89c4,.24,5.38-1.6,6.77-9.3,1-.26,2.14-.49,3.21-.8,3.46-1,5.64-3.25,5.49-7s-2.91-4.56-6-5.28c-1.21-.28-2.1-1.89-3.16-2.88-1.83-1.71-3.53-4.46-5.58-4.77-1.77-.26-4.25,2-5.87,3.65-1.14,1.17-1.36,3.23-2,5-3.78.33-7.55.9-8.07,5.62-.38,3.48,2.65,5.6,9.65,7.08C221.28,52.38,222.8,54.67,226.44,54.89Zm.14-2.09c-5.26,0-3.49-5.33-4.25-8.47-2.27-.58-4.58-.79-6.46-1.8-1.24-.66-2.65-2.55-2.53-3.75a4.5,4.5,0,0,1,3.26-3c3.72-.1,4.81-1.87,5.59-5.23.38-1.65,2.88-3.45,4.72-3.85.9-.2,3,2.43,3.6,4.11.81,2.41,1.56,3.62,4.44,3.76,1.69.08,4.3,1.83,4.71,3.33.81,2.89-1.69,4.42-4.28,5.15a33.78,33.78,0,0,1-4,.68C230.17,47.19,232.08,52.81,226.58,52.8Z"/></g></g></svg>